<svg xmlns="http://www.w3.org/2000/svg" viewBox="0 0 48 48">
	<path
		d="M24 4.8 38.5 11v10.6c0 9.7-5.6 16.5-14.5 21.6C15.1 38.1 9.5 31.3 9.5 21.6V11z"
		fill="#4f46e5"
	/>
	<path
		d="M17.2 16.2h13.6a2.4 2.4 0 0 1 2.4 2.4v13.7a2.4 2.4 0 0 1-2.4 2.4H17.2a2.4 2.4 0 0 1-2.4-2.4V18.6a2.4 2.4 0 0 1 2.4-2.4Z"
		fill="#fff"
	/>
	<path
		d="M19.1 21.3h9.8M19.1 25.6h9.8M19.1 29.9h6.5"
		stroke="#4f46e5"
		stroke-width="2.3"
		stroke-linecap="round"
	/>
	<path
		d="M33.1 10.8 38.5 13v8.6c0 8.1-4 14.1-11 18.7"
		fill="none"
		stroke="#818cf8"
		stroke-width="1.8"
		stroke-linecap="round"
		opacity=".9"
	/>
</svg>
